Coordinates
version=1
nRows=9
nColumns=36
inDegrees=yes

Units are S.I. units (second, meters, Newtons, ...)
If the header above contains a line with 'inDegrees', this indicates whether rotational values are in degrees (yes) or radians (no).

endheader
time	pelvis_tilt	pelvis_list	pelvis_rotation	pelvis_tx	pelvis_ty	pelvis_tz	hip_flexion_r	hip_adduction_r	hip_rotation_r	knee_angle_r	knee_angle_r_beta	ankle_angle_r	subtalar_angle_r	mtp_angle_r	hip_flexion_l	hip_adduction_l	hip_rotation_l	knee_angle_l	knee_angle_l_beta	ankle_angle_l	subtalar_angle_l	mtp_angle_l	lumbar_extension	lumbar_bending	lumbar_rotation	arm_flex_r	arm_add_r	arm_rot_r	elbow_flex_r	pro_sup_r	arm_flex_l	arm_add_l	arm_rot_l	elbow_flex_l	pro_sup_l
      0.00000000	      6.35028402	      1.31279241	     -0.64870759	     -2.16221226	      1.06031205	     -0.23613953	     -6.34843498	     -0.43380584	     -0.80072121	      5.01140859	      0.08746558	      8.68576314	     -2.13511257	     -6.38736843	     -4.50775670	      2.05043910	      1.03784151	      6.68055485	      0.11659768	      9.29980478	     -4.79924733	     -6.38736843	    -12.06417835	     -1.46247367	      0.93485208	     -0.41627821	     -8.39320023	      5.35553473	     19.62815915	     84.73706948	     -1.11780317	     -8.63898676	      3.97745444	     19.96754736	     81.55585065
      0.01666670	      5.88118417	      0.32436723	     -0.91150870	     -2.15855281	      1.05865630	     -0.23645576	     -6.89129450	      0.95380913	      0.13798079	      2.89409001	      0.05051140	      8.98045666	     -2.73992210	     -6.56162153	     -5.35586158	      1.17938286	      2.24075990	      4.22174740	      0.07368339	      9.88983407	     -4.62164049	     -6.56162153	    -11.35378258	     -0.53946023	      1.54881913	     -0.50438985	     -8.44622174	      6.19098488	     18.48639787	     83.50815274	     -1.50864843	     -8.04475715	      4.84851778	     19.39551191	     80.01704500
      0.03333330	      4.68748919	      0.09517536	     -1.24338032	     -2.15494519	      1.05836308	     -0.23610297	     -6.09007720	      1.37189499	      0.13077591	      1.99937622	      0.03489570	      8.33329800	     -2.32933171	     -6.64841494	     -5.00485908	      0.96008750	      2.70870840	      2.30137065	      0.04016650	      8.83018294	     -4.48166573	     -6.64841494	     -9.67634991	     -0.16514560	      1.81695962	     -0.81065868	     -8.47936361	      7.06738046	     17.60550446	     83.21603349	     -1.67721022	     -7.72246526	      5.54003992	     18.85387234	     79.25203205
      0.05000000	      4.03776316	      0.03305537	     -1.06679659	     -2.15163538	      1.05643582	     -0.23583759	     -5.63265804	      1.57903857	     -0.38111649	      1.61305698	      0.02815316	      8.54178358	     -1.56905308	     -6.87006138	     -4.73971230	      0.88309412	      3.31972407	      1.42327748	      0.02484088	      8.77907666	     -4.19423007	     -6.87006138	     -8.67305173	      0.02157528	      1.46969551	     -1.08091566	     -8.33028713	      7.51287179	     17.36913449	     79.78124567	     -1.97987510	     -7.55884245	      5.65270016	     19.04839554	     76.03776662
      0.06666670	      3.51780276	     -0.00827723	     -1.22440742	     -2.14924828	      1.05444151	     -0.23529402	     -5.14012098	      1.75176849	     -0.17572187	      1.54930007	      0.02704039	      8.95559051	     -1.39871683	     -7.00235270	     -4.34680974	      0.85152094	      3.32800832	      1.19009416	      0.02077106	      9.17655637	     -3.62971922	     -7.00235270	     -7.86579806	      0.07963828	      1.61346454	     -1.29601970	     -8.16359914	      8.09302316	     16.94261452	     77.64539207	     -2.20108928	     -7.38248595	      5.71144655	     19.26272726	     73.95757517
      0.08333330	      2.74874498	      0.00121307	     -1.47661359	     -2.14811916	      1.05233259	     -0.23477747	     -4.29300597	      1.81905654	      0.12746127	      1.64702858	      0.02874607	      9.09400263	     -1.57816966	     -7.25363295	     -3.61247680	      0.86371692	      3.10811885	      1.12269799	      0.01959478	      9.26053941	     -3.21250842	     -7.25363295	     -6.67609319	      0.15419960	      1.28718464	     -1.00296718	     -8.16982999	     11.15288720	     15.80634547	     76.78599240	     -2.64846686	     -7.35496282	      6.82778233	     19.08590947	     71.52794994
      0.10000000	      2.32723358	      0.01801058	     -1.66607987	     -2.14769579	      1.05132013	     -0.23433380	     -3.82977859	      1.85891985	      0.46075973	      1.67848572	      0.02929510	      9.02393958	     -1.89354704	     -7.39181916	     -3.20949940	      0.86288404	      2.80589271	      1.12073529	      0.01956052	      9.37015502	     -2.69846596	     -7.39181916	     -6.09871626	      0.16930405	      1.26638670	     -1.01117586	     -8.07001418	     12.54512158	     15.53283456	     72.58749734	     -3.04665212	     -7.32986684	      7.37265383	     19.55413050	     68.20508926
      0.11666670	      1.82651324	      0.04428224	     -1.86700246	     -2.14631811	      1.05146754	     -0.23382369	     -3.26462606	      1.87343956	      0.63615618	      1.76716543	      0.03084286	      9.11724981	     -1.75686338	     -7.45546950	     -2.72062258	      0.86257744	      2.47453754	      1.13236349	      0.01976347	      9.34054688	     -2.37944259	     -7.45546950	     -5.40757784	      0.14418309	      1.40716741	     -1.15040754	     -7.98281546	     12.33208916	     15.41727259	     74.31450102	     -3.29912258	     -7.16798309	      6.62881293	     19.54472499	     68.98389590
      0.13333330	      1.36187765	      0.06063707	     -2.05270963	     -2.14413391	      1.05176900	     -0.23322045	     -2.76706855	      1.89895282	      0.95309935	      1.82273274	      0.03181269	      9.08262788	     -1.89222745	     -7.47362588	     -2.28195823	      0.84043520	      2.20544990	      1.13446347	      0.01980012	      9.35272055	     -2.08758281	     -7.47362588	     -4.75149049	      0.13527340	      1.48824762	     -1.25914562	     -7.91164576	     12.85158018	     15.39405772	     71.56730012	     -3.61969908	     -7.09851319	      6.69221514	     19.68177071	     67.09444859
